Coordinates
version=1
nRows=17
nColumns=38
inDegrees=no

Units are S.I. units (second, meters, Newtons, ...)
If the header above contains a line with 'inDegrees', this indicates whether rotational values are in degrees (yes) or radians (no).

endheader
time	pelvis_tilt	pelvis_list	pelvis_rotation	pelvis_tx	pelvis_ty	pelvis_tz	hip_flexion_r	hip_adduction_r	hip_rotation_r	knee_angle_r	ankle_angle_r	subtalar_angle_r	mtp_angle_r	hip_flexion_l	hip_adduction_l	hip_rotation_l	knee_angle_l	ankle_angle_l	subtalar_angle_l	mtp_angle_l	lumbar_extension	lumbar_bending	lumbar_rotation	arm_flex_r	arm_add_r	arm_rot_r	elbow_flex_r	pro_sup_r	wrist_flex_r	wrist_dev_r	arm_flex_l	arm_add_l	arm_rot_l	elbow_flex_l	pro_sup_l	wrist_flex_l	wrist_dev_l
0.51	1.79986	1.5273	-0.320318	0.663914	1.12238	1.01522	-0.299193	0.0985301	0.037861	0	-0.194054	0	0	0.410831	-0.0938374	-0.32941	0.485725	-0.00774247	0	0	-0.257181	0.103912	0.215229	-0.269596	-0.354119	0.208811	0.609433	0.976284	0	0	-0.164854	-0.293997	1.22596	0.271425	0.83774	0	0
0.52	1.78333	1.52722	-0.311963	0.664684	1.13384	1.01351	-0.301862	0.095162	0.0461597	0	-0.0908432	0	0	0.412917	-0.0949731	-0.335618	0.493494	-0.0154546	0	0	-0.275541	0.0907847	0.161396	-0.206826	-0.365073	0.303942	0.588382	0.938359	0	0	-0.209596	-0.226509	0.664412	0.186734	1.37147	0	0
0.53	2.03447	1.52292	-0.567778	0.665374	1.14522	1.01273	-0.321432	0.0915994	0.0482087	0	-0.196743	0	0	0.398902	-0.0925703	-0.333724	0.499633	-0.0169425	0	0	-0.261839	0.0956965	0.227656	-0.274861	-0.343993	0.191479	0.610204	0.981664	0	0	-0.149954	-0.30649	1.2948	0.269117	0.775364	0	0
0.54	2.14531	1.51811	-0.68433	0.665957	1.15698	1.01174	-0.333861	0.0888343	0.0546513	0	-0.199973	0	0	0.391452	-0.0936945	-0.333967	0.515474	-0.025989	0	0	-0.267077	0.0916729	0.228641	-0.27283	-0.341576	0.193167	0.610255	0.981068	0	0	-0.14804	-0.308206	1.28176	0.263618	0.786969	0	0
0.55	2.21284	1.51323	-0.757304	0.666479	1.16912	1.01077	-0.341113	0.0865289	0.0588612	0.00688669	-0.199896	0	0	0.383657	-0.0942726	-0.327006	0.53168	-0.0339896	0	0	-0.268951	0.0887468	0.230319	-0.271696	-0.338725	0.19522	0.607935	0.980948	0	0	-0.145481	-0.310662	1.27636	0.258688	0.790645	0	0
0.56	2.27295	1.5069	-0.822407	0.66696	1.18165	1.01003	-0.343306	0.0849666	0.0556117	0.0409903	-0.206483	0	0	0.373071	-0.0955242	-0.318391	0.548692	-0.0423694	0	0	-0.270959	0.0869723	0.232264	-0.271382	-0.3356	0.196496	0.604732	0.980653	0	0	-0.142191	-0.313953	1.2758	0.254862	0.789714	0	0
0.57	2.338	1.50096	-0.891343	0.667275	1.19435	1.00946	-0.341808	0.0816304	0.0480518	0.0849255	-0.194583	0	0	0.360587	-0.0949188	-0.311677	0.56179	-0.0516296	0	0	-0.275788	0.0820947	0.218337	-0.255959	-0.336503	0.2228	0.595068	0.973908	0	0	-0.154991	-0.304848	1.14534	0.237264	0.910414	0	0
0.58	2.42945	1.49719	-0.986467	0.667504	1.20761	1.00939	-0.335858	0.0733807	0.0371651	0.139941	-0.17605	0	0	0.346695	-0.0911331	-0.31528	0.566461	-0.0689032	0	0	-0.271917	0.0767319	0.226814	-0.259635	-0.330761	0.226281	0.583107	0.967546	0	0	-0.140218	-0.320601	1.25227	0.245922	0.80405	0	0
0.59	2.5629	1.49122	-1.12172	0.667544	1.22055	1.01007	-0.333388	0.0625596	0.0343199	0.189582	-0.191834	0	0	0.330716	-0.0870962	-0.329169	0.567991	-0.0906247	0	0	-0.275727	0.0670424	0.224553	-0.257303	-0.32131	0.217313	0.572279	0.984	0	0	-0.133702	-0.326424	1.25649	0.243251	0.795535	0	0
0.6	2.66377	1.48998	-1.22158	0.667288	1.23339	1.01067	-0.318068	0.0510799	0.029768	0.250515	-0.200167	0	0	0.32319	-0.0832795	-0.334766	0.572213	-0.120491	0	0	-0.27202	0.0562592	0.217702	-0.250375	-0.31383	0.225633	0.555797	0.983142	0	0	-0.128109	-0.332566	1.26002	0.240435	0.776865	0	0
0.61	2.74429	1.49184	-1.29756	0.666593	1.24616	1.01115	-0.294536	0.0403229	0.0257392	0.316703	-0.215409	0	0	0.321389	-0.0793959	-0.331487	0.582812	-0.138463	0	0	-0.264117	0.046723	0.208489	-0.244756	-0.306545	0.233375	0.540466	0.979485	0	0	-0.121805	-0.338227	1.26163	0.236444	0.764458	0	0
0.62	2.82036	1.49712	-1.36653	0.665534	1.25885	1.01144	-0.261395	0.0290707	0.0219196	0.392101	-0.23527	0	0	0.32572	-0.0741801	-0.327796	0.600157	-0.146846	0	0	-0.251992	0.0379805	0.197493	-0.240217	-0.299713	0.241385	0.525791	0.973477	0	0	-0.114908	-0.34367	1.26316	0.231862	0.757766	0	0
0.63	2.90488	1.50725	-1.4437	0.664327	1.27117	1.01142	-0.215697	0.0167029	0.0220978	0.480176	-0.255335	0	0	0.336349	-0.0662863	-0.322549	0.618836	-0.153237	0	0	-0.24134	0.0267661	0.16679	-0.215493	-0.301187	0.296927	0.504998	0.941337	0	0	-0.128413	-0.332954	1.07984	0.21018	0.929043	0	0
0.64	3.01687	1.51912	-1.54924	0.663199	1.28352	1.01117	-0.16409	0.00499011	0.0292741	0.571861	-0.284353	0	0	0.347203	-0.0565416	-0.315788	0.634521	-0.157229	0	0	-0.219866	0.0195651	0.165314	-0.219604	-0.294283	0.296709	0.493249	0.935875	0	0	-0.111641	-0.346979	1.1644	0.216008	0.849452	0	0
0.65	-3.10755	1.53108	-1.70158	0.662071	1.29557	1.0108	-0.111255	-0.0043068	0.0435962	0.656042	-0.32665	0	0	0.356073	-0.0460241	-0.308391	0.645768	-0.156983	0	0	-0.201479	0.0122515	0.154392	-0.216033	-0.289971	0.306083	0.482132	0.934618	0	0	-0.104522	-0.352451	1.14236	0.214721	0.873628	0	0
0.66	-2.82701	1.54124	-1.97642	0.661067	1.30739	1.01029	-0.0563336	-0.0115399	0.0613345	0.735384	-0.374305	0	0	0.361473	-0.0353851	-0.304531	0.652354	-0.154286	0	0	-0.183523	0.00541053	0.147301	-0.217912	-0.285448	0.300868	0.477572	0.941379	0	0	-0.0934673	-0.36072	1.13982	0.217922	0.881413	0	0
0.67	-2.32015	1.54671	-2.47751	0.660105	1.3191	1.00967	-0.00290044	-0.0193249	0.0745799	0.808052	-0.42686	0	0	0.364259	-0.024003	-0.304291	0.655017	-0.149833	0	0	-0.164622	-0.00194588	0.140197	-0.219642	-0.282764	0.302508	0.473614	0.942303	0	0	-0.0815558	-0.371062	1.14624	0.224594	0.88062	0	0
